#!OML:ASF H:\Terrain\Patient Classification 1\Animal1\Tuesday\Animal1.ASF
:FULLY-SPECIFIED
:DEGREES
2593
root 14.315 14.9839 -12.9877 30.6801 -48.7462 7.50677
lowerback 16.869 -2.11387 2.1817
upperback -1.20908 -1.93427 4.28727
thorax -10.7621 -0.904525 3.96825
lowerneck -10.9514 4.22187 -2.48522
upperneck -15.1472 5.23988 -3.26419
head -3.00953 2.66072 -0.597728
rclavicle 0 -3.18055e-015
rhumerus -5.69113 7.36071 11.0567
rradius 25.4402
rwrist -34.9294
rhand -7.12659 6.67992
rfingers 7.12502
rthumb 18.7491 -22.4365
lclavicle 0 -3.18055e-015
lhumerus -22.9716 11.6921 3.5539
lradius 23.5051
lwrist -17.3714
lhand 5.93232 58.303
lfingers 7.12502
lthumb 31.2588 85.6548
rfemur -78.5913 8.59434 8.71532
rtibia 58.2322
rfoot -15.8145 -4.76168
rtoes -15.1343
lfemur -64.6958 -7.92254 -28.3102
ltibia 56.7735
lfoot -23.2989 23.3152
ltoes 5.81681
2594
root 14.3134 14.9836 -12.9895 30.7162 -48.7836 7.36274
lowerback 16.7732 -2.17257 2.27277
upperback -1.13093 -2.01284 4.17537
thorax -10.6226 -0.952554 3.80282
lowerneck -11.1687 4.29801 -2.48183
upperneck -14.956 5.37594 -3.06844
head -2.91165 2.72119 -0.525231
rclavicle -5.56597e-015 2.38542e-015
rhumerus -5.79332 7.12211 10.9008
rradius 25.4551
rwrist -34.7351
rhand -6.80576 6.3738
rfingers 7.12502
rthumb 19.0576 -22.7125
lclavicle -5.56597e-015 2.38542e-015
lhumerus -22.8444 11.6582 3.42703
lradius 23.4779
lwrist -17.2536
lhand 6.10717 58.2149
lfingers 7.12502
lthumb 31.4254 85.5344
rfemur -78.4961 8.68094 8.83945
rtibia 58.1577
rfoot -15.8783 -4.69035
rtoes -15.0834
lfemur -64.6465 -7.83789 -28.2473
ltibia 56.8209
lfoot -23.2285 23.408
ltoes 5.66202
2595
root 14.3119 14.9866 -12.9879 30.7512 -48.8568 7.29038
lowerback 16.6725 -2.25688 2.31451
upperback -1.14913 -2.13145 4.05503
thorax -10.5855 -1.01497 3.67152
lowerneck -11.0149 4.27481 -2.41378
upperneck -15.0613 5.33937 -2.96656
head -2.97503 2.69902 -0.509905
rclavicle -2.78299e-014 -5.88403e-014
rhumerus -5.85036 7.66002 10.8173
rradius 25.6106
rwrist -35.1259
rhand -6.89375 5.9263
rfingers 7.12502
rthumb 18.973 -23.1683
lclavicle -2.78299e-014 -5.88403e-014
lhumerus -22.8433 11.3256 3.21768
lradius 23.5613
lwrist -17.2875
lhand 6.69047 58.536
lfingers 7.12502
lthumb 31.981 85.7458
rfemur -78.455 8.76254 8.8684
rtibia 58.0888
rfoot -15.984 -4.53196
rtoes -14.7049
lfemur -64.6487 -7.79043 -28.2014
ltibia 56.8666
lfoot -23.2303 23.4454
ltoes 5.335
2596
root 14.3104 14.9893 -12.9873 30.8536 -48.8671 7.13419
lowerback 16.6491 -2.30252 2.36941
upperback -1.21526 -2.1848 3.99261
thorax -10.6483 -1.04418 3.58741
lowerneck -10.8973 4.18782 -2.17664
upperneck -14.9947 5.19031 -3.08445
head -2.96068 2.61555 -0.589018
rclavicle -3.18055e-014 2.38542e-015
rhumerus -5.96895 8.21671 10.7775
rradius 25.7043
rwrist -35.5707
rhand -7.16895 6.21847
rfingers 7.12502
rthumb 18.7083 -22.9019
lclavicle -3.18055e-014 2.38542e-015
lhumerus -22.7795 11.0145 3.10765
lradius 23.659
lwrist -17.172
lhand 7.43714 58.452
lfingers 7.12502
lthumb 32.6917 85.5168
rfemur -78.4136 8.8521 8.94905
rtibia 58.0334
rfoot -15.8667 -4.47175
rtoes -13.9284
lfemur -64.6654 -7.74192 -28.0641
ltibia 56.913
lfoot -23.5444 23.217
ltoes 6.1641
2597
root 14.309 14.9902 -12.9876 30.94 -48.8833 6.94799
lowerback 16.6085 -2.2817 2.43102
upperback -1.22536 -2.1519 3.93699
thorax -10.642 -1.03404 3.48097
lowerneck -11.0502 4.09832 -2.08561
upperneck -14.6926 5.08219 -3.04022
head -2.82867 2.5531 -0.58069
rclavicle -7.07673e-014 -2.54444e-014
rhumerus -6.14521 8.21592 10.7238
rradius 25.609
rwrist -35.5084
rhand -7.12144 6.43869
rfingers 7.12502
rthumb 18.754 -22.6773
lclavicle -7.07673e-014 -2.54444e-014
lhumerus -22.4966 11.0601 3.12357
lradius 23.6035
lwrist -16.8246
lhand 7.46871 58.0592
lfingers 7.12502
lthumb 32.7217 85.1177
rfemur -78.3351 8.9309 9.0776
rtibia 57.9991
rfoot -15.6301 -4.19681
rtoes -12.4792
lfemur -64.6147 -7.64847 -27.9687
ltibia 56.9518
lfoot -23.5774 23.2029
ltoes 6.2711
2598
root 14.3064 14.9923 -12.9847 30.8994 -48.9335 6.86379
lowerback 16.5957 -2.26907 2.48311
upperback -1.23875 -2.13191 3.86253
thorax -10.655 -1.0297 3.36429
lowerneck -11.1837 4.12056 -1.83829
upperneck -14.3502 5.09737 -3.18264
head -2.67671 2.54921 -0.65639
rclavicle 6.52014e-014 -3.49861e-014
rhumerus -6.24382 8.41239 10.7772
rradius 25.5805
rwrist -35.578
rhand -7.16507 5.72501
rfingers 7.12502
rthumb 18.7121 -23.395
lclavicle 6.52014e-014 -3.49861e-014
lhumerus -22.1655 11.2932 3.14563
lradius 23.6349
lwrist -16.8548
lhand 7.90281 58.5294
lfingers 7.12502
lthumb 33.1346 85.5011
rfemur -78.1887 8.97747 9.16765
rtibia 57.9743
rfoot -15.5695 -3.83146
rtoes -11.2535
lfemur -64.4749 -7.56765 -27.9783
ltibia 56.9836
lfoot -23.4546 23.3997
ltoes 5.60289
2599
root 14.3035 14.9971 -12.9808 30.8636 -48.9314 6.77983
lowerback 16.6365 -2.30985 2.55387
upperback -1.27144 -2.1733 3.80748
thorax -10.7185 -1.05416 3.27824
lowerneck -11.4333 4.21452 -1.51068
upperneck -13.9116 5.19885 -3.42314
head -2.46861 2.58455 -0.770019
rclavicle -5.48646e-014 6.99722e-014
rhumerus -6.22316 8.60612 10.8451
rradius 25.6073
rwrist -35.5197
rhand -7.35047 5.37607
rfingers 7.12502
rthumb 18.5337 -23.761
lclavicle -5.48646e-014 6.99722e-014
lhumerus -22.0495 11.665 3.05879
lradius 23.8301
lwrist -17.1617
lhand 8.44517 58.9837
lfingers 7.12502
lthumb 33.6502 85.8444
rfemur -78.0361 8.97731 9.30588
rtibia 57.9434
rfoot -15.7283 -3.73004
rtoes -11.3054
lfemur -64.3601 -7.52038 -27.9524
ltibia 57.033
lfoot -23.5756 23.3964
ltoes 5.90292
2600
root 14.3012 14.999 -12.9789 30.9716 -48.9444 6.64474
lowerback 16.5595 -2.34356 2.61428
upperback -1.30697 -2.21277 3.76077
thorax -10.7168 -1.07781 3.20017
lowerneck -11.8413 4.13376 -1.83328
upperneck -13.5021 5.17538 -3.02637
head -2.28417 2.57475 -0.574293
rclavicle 1.47101e-013 1.35174e-014
rhumerus -6.16396 8.48932 10.8497
rradius 25.5847
rwrist -35.0732
rhand -6.73188 5.45512
rfingers 7.12502
rthumb 19.1287 -23.6242
lclavicle 1.47101e-013 1.35174e-014
lhumerus -21.8727 12.8202 2.85925
lradius 23.7363
lwrist -18.0653
lhand 8.50847 58.7644
lfingers 7.12502
lthumb 33.7103 85.612
rfemur -78.0071 8.99024 9.44649
rtibia 57.8974
rfoot -15.8206 -3.88808
rtoes -12.4927
lfemur -64.4018 -7.45818 -27.8769
ltibia 57.1188
lfoot -23.6146 23.367
ltoes 6.25167
2601
root 14.2978 14.991 -12.9794 31.2698 -49.0035 6.4347
lowerback 16.3961 -2.34034 2.66925
upperback -1.47429 -2.20269 3.71985
thorax -10.8142 -1.07673 3.12121
lowerneck -11.7015 3.93881 -2.29899
upperneck -13.4333 5.0019 -2.48382
head -2.31262 2.5028 -0.33198
rclavicle 3.33958e-014 -5.1684e-014
rhumerus -6.15625 8.58062 10.8675
rradius 25.6261
rwrist -34.8239
rhand -5.73744 5.38825
rfingers 7.12502
rthumb 20.0847 -23.5936
lclavicle 3.33958e-014 -5.1684e-014
lhumerus -21.5633 13.8371 2.75082
lradius 23.4448
lwrist -19.1238
lhand 8.34985 58.3792
lfingers 7.12502
lthumb 33.5596 85.2597
rfemur -78.1468 9.11029 9.51877
rtibia 57.8332
rfoot -15.6503 -4.20399
rtoes -13.6439
lfemur -64.6469 -7.32614 -27.7619
ltibia 57.2467
lfoot -23.7097 23.3571
ltoes 6.34444
2602
root 14.2926 14.9837 -12.9785 31.6853 -48.9647 6.10013
lowerback 16.3134 -2.31775 2.83611
upperback -1.76427 -2.12862 3.74708
thorax -11.1001 -1.04855 3.04928
lowerneck -11.0394 3.71768 -2.62041
upperneck -13.6421 4.73774 -2.19097
head -2.50826 2.38937 -0.20719
rclavicle -2.78299e-014 1.19271e-014
rhumerus -6.22065 8.55461 10.901
rradius 25.6532
rwrist -34.4081
rhand -5.68542 5.4141
rfingers 7.12502
rthumb 20.1347 -23.5625
lclavicle -2.78299e-014 1.19271e-014
lhumerus -21.3741 13.5265 2.96546
lradius 23.5381
lwrist -19.3396
lhand 8.04261 58.2832
lfingers 7.12502
lthumb 33.2675 85.2266
rfemur -78.2892 9.21895 9.69883
rtibia 57.7686
rfoot -15.6152 -4.59391
rtoes -15.1701
lfemur -64.9284 -7.21449 -27.5269
ltibia 57.3838
lfoot -23.9295 23.2516
ltoes 6.816
2603
root 14.2864 14.987 -12.9772 31.924 -48.8646 5.87573
lowerback 16.3678 -2.31681 2.94399
upperback -2.0641 -2.08162 3.82423
thorax -11.4733 -1.02733 3.08147
lowerneck -10.6463 3.53694 -3.01695
upperneck -13.4885 4.5522 -1.89767
head -2.53902 2.31439 -0.0561269
rclavicle 3.4191e-014 6.04305e-014
rhumerus -6.17236 8.05436 10.9382
rradius 25.571
rwrist -33.3652
rhand -5.59607 5.67955
rfingers 7.12502
rthumb 20.2206 -23.288
lclavicle 3.4191e-014 6.04305e-014
lhumerus -21.3531 13.0301 3.28842
lradius 23.7881
lwrist -20.0453
lhand 7.55858 58.0866
lfingers 7.12502
lthumb 32.8072 85.1273
rfemur -78.303 9.23599 9.88953
rtibia 57.7151
rfoot -15.7744 -4.61876
rtoes -15.2539
lfemur -65.0598 -7.20863 -27.3044
ltibia 57.4962
lfoot -24.1958 22.9843
ltoes 7.833
